# xmcd CD database file
#
# Track frame offsets:
#	150
#	16772
#	35825
#	51405
#	70742
#	89715
#	103105
#	121617
#	138255
#	155200
#	174690
#	191487
#	210095
#	227825
#	248532
#	271505
#	287387
#	302750
#	332370
#
# Disc length: 4761 seconds
#
# Revision: 9
# Processed by: cddbd v1.5.2PL0 Copyright (c) Steve Scherf et al.
# Submitted via: CDex 1.51
#
DISCID=fd129713
DTITLE=Destiny's Child - Survivor
DYEAR=2001
DGENRE=R&B/Soul
TTITLE0=Destiny's Child - Independent Women Part I
TTITLE1=Destiny's Child - Survivor
TTITLE2=Destiny's Child - Bootylicious
TTITLE3=Destiny's Child - Nasty Girl
TTITLE4=Destiny's Child - Fancy
TTITLE5=Destiny's Child - Apple Pie A La Mode
TTITLE6=Destiny's Child - Sexy Daddy
TTITLE7=Destiny's Child - Perfect Man
TTITLE8=Destiny's Child - Independent Women Part II
TTITLE9=Destiny's Child - Happy Face
TTITLE10=Destiny's Child - Dance With Me
TTITLE11=Destiny's Child feat. Beyonce - My Heart Still Beats
TTITLE12=Destiny's Child - Emotion
TTITLE13=Destiny's Child - Brown Eyes
TTITLE14=Destiny's Child - Dangerously In Love
TTITLE15=Destiny's Child - The Story Of Beauty
TTITLE16=Destiny's Child - Gospel Medley (You've Been So Good - Now Behold The Lamb - Jesus Loves Me - Total Praise)
TTITLE17=Destiny's Child - Outro (DC-3) Thank You
TTITLE18=Data Track
EXTD=YEAR: 2001
EXTT0=
EXTT1=
EXTT2=
EXTT3=
EXTT4=
EXTT5=
EXTT6=
EXTT7=
EXTT8=
EXTT9=
EXTT10=
EXTT11=
EXTT12=
EXTT13=
EXTT14=
EXTT15=
EXTT16=
EXTT17=
EXTT18=
PLAYORDER=
